<?xml version="1.0" encoding="utf-8"?><svg viewBox="0 0 16 17" xmlns="http://www.w3.org/2000/svg" xmlns:xlink="http://www.w3.org/1999/xlink"><style>:root>svg{display:none}:root>svg:target{display:block}</style><svg fill="none" viewBox="0 0 16 12" id="arrow" xmlns="http://www.w3.org/2000/svg"><path d="M0 7h12.17l-3.58 3.59L10 12l6-6-6-6-1.41 1.41L12.17 5H0v2z" fill="#262F56"/></svg><svg fill="none" viewBox="0 0 16 17" id="comments" xmlns="http://www.w3.org/2000/svg"><path d="M14.543 8.66c.501.642.79 1.392.79 2.194 0 .623-.173 1.214-.484 1.748-.152.26.022 1.153.203 1.878.102.41-.31.788-.708.649-.771-.269-1.763-.564-2.091-.436a7.116 7.116 0 01-2.586.474c-1.694 0-3.213-.567-4.251-1.463A9.304 9.304 0 007 13.84c3.768 0 6.899-2.235 7.543-5.18z" fill="#262F56"/><path d="M13.334 7.538c0 2.749-2.836 4.976-6.334 4.976a7.783 7.783 0 01-2.666-.46c-.382-.14-1.7.198-2.646.475-.407.12-.795-.287-.665-.691.25-.776.506-1.768.31-2.075a4.115 4.115 0 01-.666-2.225C.667 4.79 3.503 2.562 7 2.562c3.498 0 6.334 2.228 6.334 4.976z" fill="#262F56"/></svg><svg fill="none" viewBox="0 0 14 15" id="gift" xmlns="http://www.w3.org/2000/svg"><path d="M6.27 8.674v5.938H2.053a1.417 1.417 0 01-1.416-1.417v-4.52H6.27zm7.094 4.52c0 .783-.634 1.418-1.417 1.418H7.544V8.674h5.82v4.52zM8.32 1.254a2.229 2.229 0 112.395 3.758c-.03.02-.061.036-.093.054h2.67c.391 0 .708.318.708.709v1.137a.633.633 0 01-.232.488H7.544V4.942H6.27v2.457H.232A.633.633 0 010 6.911V5.774c0-.391.317-.709.708-.709h2.673c-.032-.018-.064-.035-.094-.054a2.23 2.23 0 012.395-3.758c.428.273.937.804 1.319 1.366.382-.562.89-1.093 1.32-1.366zM4.997 2.328a.954.954 0 00-1.024 1.608c.268.171.87.384 1.471.46.295.036.546.033.727-.003.19-.037.207-.09.191-.064-.015.024.025-.014-.021-.201a2.418 2.418 0 00-.307-.66c-.322-.514-.768-.97-1.037-1.14zm5.325.292a.954.954 0 00-1.316-.292c-.269.17-.716.626-1.038 1.14-.158.252-.262.48-.306.66-.046.188-.007.226-.022.2-.016-.024.001.028.191.065.18.036.432.039.727.002.602-.075 1.204-.288 1.472-.459a.954.954 0 00.292-1.316z" fill="#262F56"/></svg><svg fill="none" viewBox="0 0 10 11" id="ok" xmlns="http://www.w3.org/2000/svg"><path d="M8.333 3.404L3.749 7.987 1.666 5.904"/></svg><svg fill="none" viewBox="0 0 16 17" id="star" xmlns="http://www.w3.org/2000/svg"><path d="M7.683 2.434a.353.353 0 01.634 0l1.54 3.12a1.415 1.415 0 001.063.772l3.444.504a.353.353 0 01.196.603l-2.49 2.425a1.415 1.415 0 00-.408 1.252l.588 3.427a.354.354 0 01-.514.373l-3.079-1.618a1.415 1.415 0 00-1.315 0L4.264 14.91a.354.354 0 01-.513-.374l.587-3.426a1.415 1.415 0 00-.407-1.253L1.44 7.434a.353.353 0 01.196-.604l3.443-.504a1.415 1.415 0 001.065-.773l1.54-3.12z" fill="#F3BB44"/></svg><svg fill="none" viewBox="0 0 16 16" id="star-null" xmlns="http://www.w3.org/2000/svg"><path d="M7.683 1.53a.353.353 0 01.634 0l1.54 3.12a1.415 1.415 0 001.063.773l3.444.504a.353.353 0 01.196.602l-2.49 2.426a1.416 1.416 0 00-.408 1.252l.588 3.426a.354.354 0 01-.514.374l-3.079-1.619a1.415 1.415 0 00-1.315 0l-3.078 1.619a.354.354 0 01-.513-.374l.587-3.426a1.415 1.415 0 00-.407-1.252L1.44 6.53a.353.353 0 01.196-.604l3.443-.503a1.415 1.415 0 001.065-.774l1.54-3.119z" fill="#F6F6F6"/></svg><svg fill="none" viewBox="0 0 4 17" id="type" xmlns="http://www.w3.org/2000/svg"><path d="M2 4.798c1.1 0 2-.896 2-1.99a2.001 2.001 0 00-4 0c0 1.094.9 1.99 2 1.99zM2 6.788c-1.1 0-2 .896-2 1.99a2.001 2.001 0 004 0c0-1.094-.9-1.99-2-1.99zM0 14.75a2.001 2.001 0 014 0 2.001 2.001 0 01-4 0z" fill="#262F56"/></svg></svg>